<?xml version="1.0" encoding="utf-8"?>
<!-- Generator: Adobe Illustrator 16.0.0, SVG Export Plug-In . SVG Version: 6.00 Build 0)  -->
<!DOCTYPE svg PUBLIC "-//W3C//DTD SVG 1.1//EN" "http://www.w3.org/Graphics/SVG/1.1/DTD/svg11.dtd">
<svg version="1.1" id="Layer_1" xmlns="http://www.w3.org/2000/svg" xmlns:xlink="http://www.w3.org/1999/xlink" x="0px" y="0px"
	 width="1134px" height="537px" viewBox="0 0 1134 537" enable-background="new 0 0 1134 537" xml:space="preserve">
<g>
	<defs>
		<rect id="SVGID_1_" width="1134" height="537"/>
	</defs>
	<clipPath id="SVGID_2_">
		<use xlink:href="#SVGID_1_"  overflow="visible"/>
	</clipPath>
	<g clip-path="url(#SVGID_2_)">
		<defs>
			<rect id="SVGID_3_" width="1134" height="537"/>
		</defs>
		<clipPath id="SVGID_4_">
			<use xlink:href="#SVGID_3_"  overflow="visible"/>
		</clipPath>
		<g clip-path="url(#SVGID_4_)">
			<text transform="matrix(1 0 0 1 68.3535 383.0176)" fill="#27AAE1" font-family="'Cambria'" font-size="450">T</text>
		</g>
		<path clip-path="url(#SVGID_4_)" fill="none" stroke="#27AAE1" stroke-miterlimit="10" d="M82.855,159.556h21.753
			c2.781-11.718,5.747-21.423,8.899-29.114c3.148-7.69,6.626-13.623,10.437-17.798c3.807-4.174,7.944-6.921,12.414-8.239
			c4.467-1.319,10.142-1.978,17.029-1.978h27.686v225c0,8.789-0.405,15.456-1.209,19.995c-0.806,4.542-1.905,8.13-3.296,10.767
			c-1.394,2.638-3.151,4.8-5.273,6.481c-2.125,1.687-4.872,3.115-8.24,4.285c-3.371,1.174-7.251,2.272-11.645,3.296v10.767h100.415
			v-10.767c-7.179-1.61-12.452-3.258-15.821-4.944c-3.371-1.682-6.042-4.026-8.02-7.031c-1.977-3-3.443-7.065-4.394-12.194
			c-0.955-5.126-1.428-12.01-1.428-20.654v-225h27.905c8.054,0,14.097,0.807,18.127,2.417c4.028,1.614,7.801,4.322,11.316,8.13
			c3.516,3.811,6.846,9.376,9.998,16.699c3.148,7.327,6.334,17.286,9.558,29.883H320.6V83.091H82.855V159.556z"/>
		<g clip-path="url(#SVGID_4_)">
			<path fill="#27AAE1" d="M628.947,184.904c-3.366,0.843-5.794,1.684-7.286,2.524c-1.491,0.843-2.679,1.894-3.557,3.155
				c-0.881,1.263-1.531,3.156-1.951,5.68c-0.421,2.524-0.631,6.426-0.631,11.704v99.255c0,5.126,0.172,8.875,0.517,11.245
				c0.344,2.372,0.918,4.246,1.721,5.623c0.804,1.377,1.988,2.523,3.558,3.441c1.566,0.918,4.111,1.836,7.63,2.754v5.623h-47.849
				v-5.623c4.36-1.07,7.382-2.295,9.065-3.672c1.682-1.377,2.829-3.402,3.441-6.081c0.612-2.677,0.918-7.114,0.918-13.311v-43.948
				c0-11.55,0.173-23.236,0.517-35.055c0.345-11.818,0.746-19.908,1.205-24.269h-1.95l-45.44,113.714h-13.196l-42.227-115.55h-1.951
				c0.382,4.667,0.746,13.121,1.09,25.359c0.344,12.24,0.516,24.825,0.516,37.751v41.997c0,5.126,0.172,8.875,0.516,11.245
				c0.345,2.372,0.918,4.246,1.722,5.623c0.803,1.377,1.988,2.523,3.557,3.441c1.567,0.918,4.111,1.836,7.631,2.754v5.623h-41.882
				v-5.623c4.742-1.223,7.917-2.581,9.524-4.073c1.606-1.491,2.657-3.614,3.155-6.368c0.497-2.754,0.746-6.96,0.746-12.622v-99.255
				c0-5.278-0.192-9.123-0.574-11.532c-0.384-2.41-1.015-4.284-1.893-5.623c-0.88-1.337-2.048-2.409-3.5-3.213
				c-1.454-0.803-3.941-1.701-7.458-2.696v-5.623h40.964l40.276,111.648l44.292-111.648h38.783V184.904z"/>
			<path fill="#27AAE1" d="M679.85,306.879c0,4.515,0.247,8.109,0.745,10.787c0.497,2.678,1.263,4.801,2.295,6.368
				c1.033,1.568,2.428,2.793,4.188,3.672c1.759,0.88,4.513,1.74,8.262,2.581v5.623h-50.373v-5.623
				c4.742-1.223,7.917-2.581,9.523-4.073c1.606-1.491,2.657-3.614,3.155-6.368c0.497-2.754,0.746-6.96,0.746-12.622v-99.255
				c0-5.278-0.191-9.123-0.573-11.532c-0.384-2.41-1.016-4.284-1.894-5.623c-0.881-1.337-2.048-2.409-3.5-3.213
				c-1.454-0.803-3.94-1.701-7.458-2.696v-5.623h56.914c17.9,0,31.229,3.424,39.988,10.27c8.759,6.847,13.139,17.269,13.139,31.268
				c0,7.957-1.377,15.109-4.131,21.458c-2.754,6.351-6.655,11.552-11.704,15.605c-5.049,4.056-11.016,6.962-17.9,8.721
				c-6.885,1.761-14.114,2.639-21.687,2.639c-8.492,0-15.071-0.152-19.736-0.458V306.879z M679.85,259.26h13.311
				c8.644,0,15.777-1.128,21.399-3.385c5.623-2.256,9.926-6.005,12.909-11.245c2.983-5.239,4.475-12.181,4.475-20.827
				c0-6.578-0.88-12.066-2.639-16.466c-1.761-4.398-4.188-7.935-7.286-10.614c-3.099-2.677-6.79-4.57-11.073-5.68
				c-4.285-1.108-8.95-1.664-13.999-1.664c-7.573,0-13.272,0.154-17.097,0.459V259.26z"/>
			<path fill="#27AAE1" d="M882.105,281.75c0,8.339-0.765,15.53-2.295,21.572c-1.453,5.737-3.634,10.825-6.54,15.262
				c-2.679,3.978-6.006,7.363-9.983,10.154c-3.978,2.794-8.797,4.992-14.457,6.598c-5.662,1.607-12.317,2.41-19.967,2.41
				c-9.256,0-17.193-1.033-23.81-3.098c-6.617-2.066-12.088-5.451-16.408-10.155c-4.323-4.705-7.44-10.25-9.353-16.639
				c-1.912-6.386-2.868-14.515-2.868-24.384v-75.502c0-5.967-0.191-10.001-0.573-12.106c-0.384-2.103-0.938-3.767-1.664-4.991
				c-0.729-1.223-1.779-2.275-3.156-3.155c-1.377-0.879-3.94-1.816-7.688-2.812v-5.623h48.193v5.623
				c-4.285,1.072-7.269,2.277-8.95,3.614c-1.684,1.339-2.831,3.348-3.442,6.024c-0.613,2.679-0.918,7.154-0.918,13.425v81.241
				c0,7.42,0.783,13.654,2.353,18.703c1.566,5.049,3.767,8.97,6.598,11.762c2.829,2.793,6.196,4.819,10.098,6.081
				c3.901,1.263,8.759,1.894,14.573,1.894c5.354,0,10.058-0.936,14.113-2.812c4.054-1.873,7.438-4.723,10.155-8.548
				c2.714-3.825,4.57-8.529,5.565-14.114c0.993-5.583,1.491-13.081,1.491-22.49v-71.716c0-6.655-0.326-11.206-0.976-13.655
				c-0.65-2.447-1.721-4.321-3.213-5.623c-1.491-1.3-4.571-2.562-9.236-3.787v-5.623h45.783v5.623
				c-4.438,1.147-7.479,2.41-9.122,3.787c-1.646,1.377-2.773,3.367-3.386,5.967c-0.612,2.602-0.918,7.039-0.918,13.311V281.75z"/>
			<path fill="#27AAE1" d="M918.096,300.225c1.529,6.731,3.595,12.048,6.196,15.949c2.6,3.901,5.967,6.79,10.098,8.663
				c4.131,1.876,9.447,2.812,15.95,2.812c8.949,0,15.814-2.333,20.597-7c4.779-4.665,7.171-11.475,7.171-20.424
				c0-5.738-0.994-10.557-2.982-14.459c-1.99-3.9-5.241-7.572-9.754-11.016c-4.515-3.441-11.399-7.458-20.654-12.048
				c-8.95-4.436-16.026-8.778-21.229-13.023c-5.202-4.246-9.084-8.854-11.646-13.827c-2.563-4.972-3.844-10.402-3.844-16.294
				c0-8.566,2.008-16.007,6.024-22.318c4.016-6.311,9.905-11.188,17.671-14.63c7.763-3.442,16.656-5.164,26.678-5.164
				c5.813,0,11.493,0.307,17.04,0.918c5.546,0.613,12.488,1.99,20.827,4.131v30.981h-11.36c-1.761-6.73-3.979-11.971-6.655-15.72
				c-2.679-3.747-5.814-6.368-9.409-7.86c-3.597-1.491-8.262-2.237-13.999-2.237c-4.974,0-9.429,0.918-13.368,2.754
				c-3.94,1.836-7.057,4.609-9.352,8.319c-2.295,3.711-3.442,8.129-3.442,13.253c0,5.433,0.976,10.022,2.926,13.77
				c1.951,3.749,4.992,7.229,9.123,10.442s10.25,6.81,18.359,10.786c9.791,4.896,17.384,9.449,22.776,13.655
				c5.394,4.208,9.6,9.008,12.622,14.4c3.021,5.394,4.533,11.687,4.533,18.876c0,8.032-1.263,14.822-3.787,20.367
				c-2.524,5.548-6.024,10.061-10.499,13.54c-4.476,3.482-9.831,6.007-16.064,7.573c-6.236,1.567-13.063,2.353-20.482,2.353
				c-12.011,0-25.857-2.026-41.538-6.082v-31.439H918.096z"/>
		</g>
		<path clip-path="url(#SVGID_4_)" fill="none" stroke="#27AAE1" stroke-miterlimit="10" d="M628.948,179.282h-38.784
			L545.872,290.93l-40.276-111.648h-40.964v5.623c3.517,0.995,6.004,1.893,7.458,2.696c1.452,0.804,2.62,1.875,3.5,3.213
			c0.879,1.339,1.509,3.213,1.893,5.623c0.382,2.409,0.574,6.253,0.574,11.532v99.255c0,5.662-0.249,9.868-0.746,12.622
			c-0.498,2.754-1.549,4.877-3.155,6.368c-1.607,1.492-4.782,2.851-9.524,4.074v5.622h41.882v-5.622
			c-3.52-0.918-6.064-1.836-7.631-2.754c-1.568-0.919-2.754-2.065-3.557-3.442c-0.803-1.377-1.377-3.251-1.721-5.623
			c-0.344-2.37-0.516-6.119-0.516-11.245v-41.997c0-12.927-0.173-25.511-0.516-37.752c-0.345-12.238-0.709-20.692-1.091-25.359
			h1.951l42.226,115.55h13.196l45.44-113.714h1.95c-0.459,4.361-0.86,12.451-1.205,24.269c-0.343,11.819-0.517,23.505-0.517,35.055
			v43.948c0,6.196-0.306,10.634-0.918,13.311c-0.612,2.679-1.761,4.704-3.441,6.081c-1.685,1.378-4.705,2.603-9.065,3.673v5.622
			h47.85v-5.622c-3.521-0.918-6.063-1.836-7.631-2.754c-1.568-0.919-2.754-2.065-3.558-3.442c-0.803-1.377-1.377-3.251-1.721-5.623
			c-0.345-2.37-0.517-6.119-0.517-11.245v-99.255c0-5.279,0.21-9.18,0.632-11.705c0.419-2.524,1.069-4.417,1.95-5.68
			c0.878-1.261,2.065-2.312,3.557-3.155c1.493-0.841,3.92-1.682,7.287-2.524V179.282z"/>
		<path clip-path="url(#SVGID_4_)" fill="none" stroke="#27AAE1" stroke-miterlimit="10" d="M679.85,189.839
			c3.823-0.305,9.523-0.459,17.097-0.459c5.049,0,9.714,0.555,13.999,1.663c4.283,1.11,7.975,3.004,11.072,5.68
			c3.099,2.679,5.526,6.216,7.287,10.614c1.759,4.4,2.64,9.888,2.64,16.467c0,8.645-1.492,15.587-4.476,20.826
			c-2.983,5.24-7.287,8.989-12.91,11.245c-5.621,2.257-12.756,3.385-21.398,3.385H679.85V189.839z M679.85,268.784
			c4.664,0.307,11.244,0.459,19.735,0.459c7.574,0,14.803-0.878,21.688-2.64c6.885-1.759,12.852-4.665,17.9-8.721
			c5.049-4.054,8.95-9.255,11.704-15.605c2.754-6.349,4.131-13.501,4.131-21.458c0-13.999-4.38-24.421-13.139-31.268
			c-8.76-6.846-22.088-10.27-39.989-10.27h-56.914v5.623c3.519,0.995,6.005,1.893,7.459,2.696c1.452,0.804,2.619,1.875,3.5,3.213
			c0.878,1.339,1.509,3.213,1.894,5.623c0.382,2.409,0.572,6.253,0.572,11.532v99.255c0,5.662-0.248,9.868-0.745,12.622
			c-0.498,2.754-1.549,4.877-3.155,6.368c-1.606,1.492-4.782,2.851-9.524,4.074v5.622h50.374v-5.622
			c-3.749-0.842-6.503-1.702-8.262-2.582c-1.761-0.879-3.155-2.104-4.188-3.673c-1.032-1.566-1.798-3.688-2.295-6.367
			c-0.498-2.678-0.745-6.272-0.745-10.786V268.784z"/>
		<path clip-path="url(#SVGID_4_)" fill="none" stroke="#27AAE1" stroke-miterlimit="10" d="M881.871,207.968
			c0-6.271,0.305-10.709,0.918-13.311c0.611-2.599,1.739-4.589,3.385-5.966c1.645-1.377,4.686-2.64,9.123-3.787v-5.623h-45.784
			v5.623c4.665,1.225,7.745,2.487,9.237,3.787c1.491,1.301,2.561,3.175,3.213,5.622c0.648,2.449,0.975,7,0.975,13.655v71.716
			c0,9.409-0.498,16.908-1.491,22.491c-0.995,5.585-2.851,10.288-5.565,14.112c-2.716,3.826-6.101,6.675-10.154,8.549
			c-4.056,1.875-8.761,2.812-14.114,2.812c-5.814,0-10.671-0.631-14.573-1.894c-3.901-1.262-7.268-3.287-10.097-6.081
			c-2.831-2.792-5.031-6.713-6.599-11.762c-1.568-5.049-2.352-11.283-2.352-18.704v-81.24c0-6.271,0.304-10.747,0.918-13.425
			c0.611-2.677,1.758-4.685,3.441-6.025c1.683-1.337,4.666-2.542,8.95-3.614v-5.623h-48.192v5.623
			c3.747,0.995,6.311,1.933,7.688,2.812s2.428,1.932,3.155,3.155c0.727,1.224,1.28,2.888,1.664,4.991
			c0.382,2.105,0.574,6.139,0.574,12.106v75.503c0,9.867,0.955,17.997,2.867,24.383c1.912,6.388,5.03,11.934,9.353,16.639
			c4.321,4.704,9.792,8.089,16.409,10.155c6.616,2.064,14.553,3.098,23.81,3.098c7.648,0,14.304-0.803,19.966-2.41
			c5.66-1.605,10.479-3.805,14.458-6.598c3.977-2.791,7.305-6.176,9.982-10.155c2.907-4.435,5.087-9.523,6.541-15.261
			c1.529-6.042,2.295-13.233,2.295-21.572V207.968z"/>
		<path clip-path="url(#SVGID_4_)" fill="none" stroke="#27AAE1" stroke-miterlimit="10" d="M906.151,300.224v31.44
			c15.681,4.056,29.527,6.082,41.538,6.082c7.419,0,14.246-0.785,20.483-2.353c6.232-1.566,11.588-4.092,16.063-7.573
			c4.475-3.48,7.975-7.992,10.499-13.54c2.524-5.545,3.786-12.335,3.786-20.367c0-7.189-1.511-13.482-4.532-18.876
			c-3.022-5.393-7.229-10.192-12.622-14.4c-5.393-4.206-12.985-8.759-22.777-13.655c-8.108-3.977-14.229-7.573-18.359-10.786
			c-4.131-3.213-7.171-6.693-9.122-10.442c-1.95-3.747-2.926-8.337-2.926-13.77c0-5.124,1.147-9.542,3.442-13.253
			c2.295-3.71,5.411-6.483,9.352-8.319c3.939-1.836,8.395-2.754,13.368-2.754c5.737,0,10.402,0.746,13.999,2.237
			c3.595,1.493,6.73,4.114,9.41,7.861c2.676,3.749,4.894,8.989,6.654,15.72h11.359v-30.981c-8.338-2.141-15.28-3.518-20.826-4.131
			c-5.547-0.612-11.227-0.918-17.039-0.918c-10.021,0-18.916,1.721-26.679,5.163c-7.766,3.443-13.655,8.32-17.671,14.63
			c-4.017,6.312-6.024,13.752-6.024,22.318c0,5.892,1.28,11.323,3.844,16.294c2.563,4.974,6.444,9.581,11.647,13.828
			c5.201,4.245,12.278,8.587,21.228,13.023c9.255,4.59,16.14,8.606,20.654,12.048c4.513,3.443,7.764,7.115,9.753,11.016
			c1.989,3.901,2.984,8.722,2.984,14.458c0,8.95-2.393,15.761-7.172,20.426c-4.782,4.667-11.646,6.999-20.598,6.999
			c-6.502,0-11.818-0.937-15.949-2.812c-4.131-1.874-7.497-4.762-10.098-8.663c-2.602-3.901-4.667-9.218-6.196-15.95H906.151z"/>
		<path clip-path="url(#SVGID_4_)" fill="none" stroke="#27AAE1" stroke-width="20" stroke-miterlimit="10" d="M363.026,338.671
			c-46.631,0-84.432-37.802-84.432-84.433c0-46.63,37.801-84.432,84.432-84.432s84.433,37.802,84.433,84.432"/>
		<path clip-path="url(#SVGID_4_)" fill="#27AAE1" d="M368.17,254.238c0,2.841-2.303,5.145-5.144,5.145s-5.144-2.304-5.144-5.145
			s2.303-5.144,5.144-5.144S368.17,251.397,368.17,254.238"/>
		
			<circle clip-path="url(#SVGID_4_)" fill="none" stroke="#27AAE1" stroke-width="20" stroke-miterlimit="10" cx="363.026" cy="254.238" r="5.144"/>
		<path clip-path="url(#SVGID_4_)" fill="#27AAE1" d="M308.667,229.706c0.897-0.479,1.731-0.815,2.599-1.228l2.494-0.995
			c1.657-0.652,3.248-1.156,4.821-1.622c0.381-0.089,0.599,0.183,0.839,0.407c0.241,0.221,0.55,0.291,0.826,0.435l1.699,0.767
			l3.397,1.533l13.59,6.133l13.589,6.133l6.795,3.067c0.678,1.518,1.356,3.036,1.968,4.701l0.915,2.503
			c0.275,0.901,0.578,1.74,0.827,2.698c-0.883,0.447-1.713,0.776-2.571,1.166l-2.482,0.969c-1.653,0.644-3.24,1.14-4.827,1.635
			l-6.795-3.067l-13.59-6.133l-13.589-6.133l-3.398-1.533l-1.698-0.767c-0.291-0.111-0.548-0.296-0.873-0.332
			c-0.327-0.031-0.675-0.015-0.86-0.359c-0.692-1.488-1.366-3.015-1.974-4.688l-0.903-2.53
			C309.202,231.542,308.902,230.695,308.667,229.706"/>
		<defs>
			<filter id="Adobe_OpacityMaskFilter" filterUnits="userSpaceOnUse" x="437.772" y="254.238" width="19.187" height="6.664">
				<feColorMatrix  type="matrix" values="1 0 0 0 0  0 1 0 0 0  0 0 1 0 0  0 0 0 1 0"/>
			</filter>
		</defs>
		<mask maskUnits="userSpaceOnUse" x="437.772" y="254.238" width="19.187" height="6.664" id="SVGID_5_">
			<g filter="url(#Adobe_OpacityMaskFilter)">
				
					<linearGradient id="SVGID_6_" gradientUnits="userSpaceOnUse" x1="0" y1="536.8848" x2="1" y2="536.8848" gradientTransform="matrix(94.4325 0 0 -94.4325 363.0469 50967.832)">
					<stop  offset="0" style="stop-color:#FFFFFF"/>
					<stop  offset="1" style="stop-color:#000000"/>
				</linearGradient>
				<rect clip-path="url(#SVGID_4_)" fill="url(#SVGID_6_)" width="1134" height="537"/>
			</g>
		</mask>
		
			<linearGradient id="SVGID_7_" gradientUnits="userSpaceOnUse" x1="0" y1="536.999" x2="1" y2="536.999" gradientTransform="matrix(94.4325 0 0 -94.4325 363.0209 50967.8438)">
			<stop  offset="0" style="stop-color:#2484C6"/>
			<stop  offset="1" style="stop-color:#2484C6"/>
		</linearGradient>
		<path clip-path="url(#SVGID_4_)" mask="url(#SVGID_5_)" fill="url(#SVGID_7_)" d="M456.959,254.238
			c0,2.24-0.079,4.463-0.233,6.664l-18.953-1.33c0.124-1.761,0.187-3.54,0.187-5.334H456.959z"/>
		<defs>
			<filter id="Adobe_OpacityMaskFilter_1_" filterUnits="userSpaceOnUse" x="378.013" y="269.215" width="77.073" height="77.08">
				<feColorMatrix  type="matrix" values="1 0 0 0 0  0 1 0 0 0  0 0 1 0 0  0 0 0 1 0"/>
			</filter>
		</defs>
		<mask maskUnits="userSpaceOnUse" x="378.013" y="269.215" width="77.073" height="77.08" id="SVGID_8_">
			<g filter="url(#Adobe_OpacityMaskFilter_1_)">
				
					<linearGradient id="SVGID_9_" gradientUnits="userSpaceOnUse" x1="0" y1="537.4238" x2="1" y2="537.4238" gradientTransform="matrix(94.4325 0 0 -94.4325 363.0469 51018.707)">
					<stop  offset="0" style="stop-color:#FFFFFF"/>
					<stop  offset="1" style="stop-color:#000000"/>
				</linearGradient>
				<rect clip-path="url(#SVGID_4_)" fill="url(#SVGID_9_)" width="1134" height="537"/>
			</g>
		</mask>
		
			<linearGradient id="SVGID_10_" gradientUnits="userSpaceOnUse" x1="0" y1="537.0068" x2="1" y2="537.0068" gradientTransform="matrix(94.4325 0 0 -94.4325 363.0209 51018.7188)">
			<stop  offset="0" style="stop-color:#2484C6"/>
			<stop  offset="1" style="stop-color:#2484C6"/>
		</linearGradient>
		<path clip-path="url(#SVGID_4_)" mask="url(#SVGID_8_)" fill="url(#SVGID_10_)" d="M393.561,343.094
			c-3.818,1.313-7.749,2.385-11.771,3.201l-3.777-18.621c3.205-0.65,6.333-1.504,9.374-2.549L393.561,343.094z M415.343,332.264
			c-3.364,2.259-6.882,4.308-10.537,6.125l-8.461-17.013c2.913-1.448,5.719-3.081,8.403-4.885L415.343,332.264z M433.61,316.218
			c-2.683,3.054-5.561,5.931-8.615,8.613l-12.54-14.274c2.439-2.143,4.739-4.441,6.882-6.881L433.61,316.218z M447.175,296.022
			c-1.818,3.656-3.868,7.176-6.128,10.541l-15.771-10.596c1.804-2.686,3.438-5.493,4.888-8.407L447.175,296.022z M455.085,272.989
			c-0.815,4.024-1.889,7.956-3.201,11.777l-17.969-6.173c1.045-3.042,1.899-6.173,2.549-9.379L455.085,272.989z"/>
		<defs>
			<filter id="Adobe_OpacityMaskFilter_2_" filterUnits="userSpaceOnUse" x="363.026" y="328.984" width="6.669" height="19.187">
				<feColorMatrix  type="matrix" values="1 0 0 0 0  0 1 0 0 0  0 0 1 0 0  0 0 0 1 0"/>
			</filter>
		</defs>
		<mask maskUnits="userSpaceOnUse" x="363.026" y="328.984" width="6.669" height="19.187" id="SVGID_11_">
			<g filter="url(#Adobe_OpacityMaskFilter_2_)">
				
					<linearGradient id="SVGID_12_" gradientUnits="userSpaceOnUse" x1="0" y1="537.7422" x2="1" y2="537.7422" gradientTransform="matrix(94.4325 0 0 -94.4325 363.0469 51048.832)">
					<stop  offset="0" style="stop-color:#FFFFFF"/>
					<stop  offset="1" style="stop-color:#000000"/>
				</linearGradient>
				<rect clip-path="url(#SVGID_4_)" fill="url(#SVGID_12_)" width="1134" height="537"/>
			</g>
		</mask>
		
			<linearGradient id="SVGID_13_" gradientUnits="userSpaceOnUse" x1="0" y1="537" x2="1" y2="537" gradientTransform="matrix(94.4325 0 0 -94.4325 363.0209 51048.8438)">
			<stop  offset="0" style="stop-color:#2484C6"/>
			<stop  offset="1" style="stop-color:#2484C6"/>
		</linearGradient>
		<path clip-path="url(#SVGID_4_)" mask="url(#SVGID_11_)" fill="url(#SVGID_13_)" d="M369.695,347.938
			c-2.208,0.156-4.431,0.233-6.669,0.233v-19c1.798,0,3.575-0.063,5.329-0.187L369.695,347.938z"/>
		<path clip-path="url(#SVGID_4_)" fill="none" stroke="#27AAE1" stroke-width="20" stroke-miterlimit="10" d="M418.472,317.915
			c-35.167,30.621-88.5,26.937-119.122-8.231c-30.622-35.167-26.937-88.5,8.231-119.122c35.167-30.621,88.5-26.936,119.121,8.231"/>
		<path clip-path="url(#SVGID_4_)" fill="#27AAE1" d="M429.402,254.238c-1.383,1.532-2.766,2.912-4.148,4.134
			c-1.383,1.251-2.766,2.383-4.149,3.449c-0.346,0.237-0.691,0.079-1.037-0.026c-0.346-0.102-0.691-0.038-1.037-0.057h-2.074h-4.149
			h-16.594H379.62h-8.297c-1.383-1.104-2.766-2.209-4.149-3.476l-2.074-1.904c-0.691-0.709-1.383-1.349-2.074-2.12
			c0.691-0.771,1.383-1.41,2.074-2.119l2.074-1.905c1.383-1.266,2.766-2.371,4.149-3.476h8.297h16.594h16.594h4.149h2.074
			c0.346-0.018,0.691,0.045,1.037-0.056c0.346-0.106,0.691-0.264,1.037-0.026c1.383,1.065,2.766,2.198,4.149,3.449
			C426.636,251.326,428.02,252.707,429.402,254.238"/>
	</g>
	<g clip-path="url(#SVGID_2_)">
		<path fill="#27AAE1" d="M276.427,408.981l7.572-52.885h0.859l21.499,43.394l21.292-43.394h0.847l7.61,52.885h-5.183l-5.225-37.821
			L307,408.981h-1.351l-18.922-38.108l-5.195,38.108H276.427z"/>
		<path fill="#27AAE1" d="M346.864,369.866h5.033v18.264c0,4.458,0.24,7.525,0.72,9.203c0.72,2.397,2.094,4.291,4.123,5.681
			c2.028,1.39,4.446,2.085,7.255,2.085c2.808,0,5.19-0.677,7.147-2.031c1.956-1.354,3.307-3.134,4.051-5.339
			c0.504-1.51,0.756-4.71,0.756-9.599v-18.264h5.141v19.198c0,5.393-0.629,9.455-1.887,12.188s-3.152,4.871-5.68,6.417
			c-2.529,1.546-5.699,2.319-9.509,2.319c-3.811,0-6.993-0.773-9.545-2.319c-2.552-1.546-4.458-3.703-5.716-6.471
			c-1.258-2.769-1.887-6.933-1.887-12.493V369.866z"/>
		<path fill="#27AAE1" d="M393.356,354.767h5.033v54.215h-5.033V354.767z"/>
		<path fill="#27AAE1" d="M415.005,355.342h5.033v14.524h7.981v4.35h-7.981v34.766h-5.033v-34.766h-6.867v-4.35h6.867V355.342z"/>
		<path fill="#27AAE1" d="M439.153,353.76c1.146,0,2.124,0.408,2.935,1.223s1.217,1.797,1.217,2.947
			c0,1.127-0.406,2.098-1.217,2.912c-0.811,0.815-1.79,1.223-2.935,1.223c-1.122,0-2.088-0.407-2.9-1.223
			c-0.811-0.814-1.216-1.785-1.216-2.912c0-1.15,0.405-2.133,1.216-2.947C437.065,354.168,438.032,353.76,439.153,353.76z
			 M436.655,369.866h5.033v39.115h-5.033V369.866z"/>
		<path fill="#27AAE1" d="M450.646,386.907h19.773v4.386h-19.773V386.907z"/>
		<path fill="#27AAE1" d="M475.709,361.273v-5.177h28.977v5.177h-11.792v47.708h-5.393v-47.708H475.709z"/>
		<path fill="#27AAE1" d="M546.253,396.003l4.242,2.229c-1.391,2.732-2.999,4.938-4.822,6.615c-1.823,1.679-3.875,2.954-6.153,3.829
			c-2.28,0.875-4.858,1.313-7.737,1.313c-6.381,0-11.371-2.091-14.97-6.273c-3.598-4.183-5.397-8.91-5.397-14.184
			c0-4.961,1.523-9.383,4.57-13.266c3.862-4.938,9.032-7.406,15.509-7.406c6.669,0,11.995,2.529,15.977,7.586
			c2.831,3.571,4.27,8.029,4.318,13.374h-35.197c0.096,4.543,1.548,8.268,4.355,11.173s6.275,4.358,10.403,4.358
			c1.991,0,3.929-0.347,5.813-1.039c1.883-0.692,3.485-1.611,4.805-2.758C543.29,400.408,544.718,398.558,546.253,396.003z
			 M546.253,385.469c-0.672-2.684-1.65-4.829-2.934-6.435s-2.981-2.9-5.093-3.883s-4.332-1.475-6.659-1.475
			c-3.84,0-7.14,1.235-9.899,3.703c-2.016,1.798-3.541,4.494-4.572,8.089H546.253z"/>
		<path fill="#27AAE1" d="M563.014,369.866h5.034v7.011c2.013-2.685,4.242-4.692,6.687-6.022s5.105-1.995,7.981-1.995
			c2.924,0,5.519,0.743,7.783,2.229s3.937,3.487,5.016,6.004c1.078,2.517,1.617,6.435,1.617,11.756v20.133h-5.033v-18.659
			c0-4.506-0.187-7.514-0.56-9.023c-0.583-2.589-1.702-4.535-3.355-5.842c-1.654-1.307-3.812-1.96-6.473-1.96
			c-3.044,0-5.771,1.007-8.18,3.021c-2.41,2.013-3.998,4.506-4.765,7.478c-0.479,1.941-0.719,5.488-0.719,10.642v14.345h-5.034
			V369.866z"/>
		<path fill="#27AAE1" d="M648.729,369.866v39.115h-4.961v-6.723c-2.109,2.564-4.477,4.494-7.101,5.788
			c-2.625,1.294-5.495,1.941-8.61,1.941c-5.537,0-10.265-2.007-14.184-6.022c-3.918-4.014-5.878-8.897-5.878-14.649
			c0-5.633,1.978-10.45,5.933-14.453c3.954-4.002,8.712-6.004,14.272-6.004c3.211,0,6.117,0.684,8.718,2.05
			c2.601,1.365,4.884,3.415,6.85,6.147v-7.19H648.729z M628.614,373.713c-2.801,0-5.387,0.688-7.756,2.065
			c-2.371,1.376-4.256,3.31-5.656,5.8c-1.4,2.489-2.101,5.123-2.101,7.899c0,2.754,0.706,5.388,2.118,7.9
			c1.412,2.514,3.31,4.471,5.691,5.871c2.382,1.401,4.938,2.102,7.667,2.102c2.754,0,5.363-0.694,7.829-2.083
			c2.465-1.389,4.362-3.268,5.691-5.638c1.328-2.37,1.993-5.04,1.993-8.009c0-4.523-1.49-8.307-4.471-11.348
			C636.64,375.233,632.972,373.713,628.614,373.713z"/>
		<path fill="#27AAE1" d="M661.821,369.866h5.033v7.011c2.014-2.685,4.242-4.692,6.688-6.022c2.444-1.33,5.104-1.995,7.98-1.995
			c2.924,0,5.519,0.743,7.784,2.229c2.265,1.486,3.937,3.487,5.015,6.004c1.079,2.517,1.618,6.435,1.618,11.756v20.133h-5.033
			v-18.659c0-4.506-0.188-7.514-0.561-9.023c-0.583-2.589-1.701-4.535-3.355-5.842c-1.653-1.307-3.812-1.96-6.472-1.96
			c-3.045,0-5.772,1.007-8.181,3.021c-2.409,2.013-3.997,4.506-4.765,7.478c-0.479,1.941-0.719,5.488-0.719,10.642v14.345h-5.033
			V369.866z"/>
		<path fill="#27AAE1" d="M712.951,355.342h5.033v14.524h7.981v4.35h-7.981v34.766h-5.033v-34.766h-6.866v-4.35h6.866V355.342z"/>
		<path fill="#27AAE1" d="M752.944,399.131l4.494-2.696c3.163,5.824,6.818,8.736,10.965,8.736c1.773,0,3.439-0.414,4.997-1.24
			c1.559-0.827,2.744-1.936,3.56-3.326c0.814-1.39,1.223-2.863,1.223-4.422c0-1.773-0.6-3.511-1.798-5.213
			c-1.653-2.349-4.674-5.177-9.06-8.484c-4.41-3.331-7.154-5.74-8.233-7.227c-1.869-2.492-2.804-5.188-2.804-8.089
			c0-2.301,0.551-4.398,1.653-6.292c1.103-1.893,2.654-3.385,4.656-4.476c2.001-1.091,4.176-1.636,6.524-1.636
			c2.493,0,4.823,0.617,6.993,1.852c2.169,1.234,4.464,3.505,6.885,6.813l-4.314,3.271c-1.989-2.636-3.685-4.373-5.087-5.213
			c-1.402-0.839-2.93-1.258-4.584-1.258c-2.134,0-3.877,0.646-5.23,1.941c-1.354,1.294-2.031,2.888-2.031,4.781
			c0,1.15,0.239,2.265,0.719,3.344c0.479,1.078,1.354,2.253,2.624,3.522c0.695,0.672,2.972,2.434,6.831,5.285
			c4.578,3.38,7.717,6.388,9.419,9.024s2.553,5.284,2.553,7.945c0,3.835-1.456,7.166-4.368,9.994s-6.453,4.242-10.623,4.242
			c-3.213,0-6.125-0.857-8.736-2.57C757.558,406.027,755.149,403.157,752.944,399.131z"/>
		<path fill="#27AAE1" d="M791.814,369.866h5.32l13.442,30.12l13.055-30.12h5.356l-23.333,53.424h-5.316l7.53-17.271
			L791.814,369.866z"/>
		<path fill="#27AAE1" d="M856.928,374.145l-3.236,3.344c-2.691-2.612-5.323-3.919-7.894-3.919c-1.635,0-3.034,0.539-4.199,1.617
			c-1.166,1.079-1.748,2.337-1.748,3.775c0,1.271,0.48,2.48,1.44,3.631c0.961,1.175,2.979,2.553,6.053,4.135
			c3.747,1.941,6.293,3.811,7.639,5.608c1.32,1.821,1.98,3.871,1.98,6.147c0,3.212-1.128,5.933-3.385,8.161
			c-2.257,2.229-5.077,3.344-8.461,3.344c-2.257,0-4.411-0.492-6.464-1.475c-2.052-0.982-3.75-2.337-5.095-4.063l3.164-3.595
			c2.57,2.9,5.297,4.35,8.18,4.35c2.018,0,3.735-0.646,5.153-1.94c1.417-1.295,2.126-2.816,2.126-4.566
			c0-1.438-0.469-2.72-1.405-3.847c-0.937-1.103-3.051-2.492-6.341-4.171c-3.531-1.82-5.933-3.618-7.206-5.393
			c-1.272-1.773-1.909-3.798-1.909-6.075c0-2.972,1.014-5.44,3.043-7.406c2.028-1.965,4.591-2.948,7.688-2.948
			C849.652,368.859,853.278,370.621,856.928,374.145z"/>
		<path fill="#27AAE1" d="M871.996,355.342h5.033v14.524h7.981v4.35h-7.981v34.766h-5.033v-34.766h-6.866v-4.35h6.866V355.342z"/>
		<path fill="#27AAE1" d="M927.333,396.003l4.242,2.229c-1.392,2.732-2.998,4.938-4.822,6.615c-1.823,1.679-3.874,2.954-6.153,3.829
			s-4.858,1.313-7.736,1.313c-6.382,0-11.371-2.091-14.97-6.273s-5.397-8.91-5.397-14.184c0-4.961,1.522-9.383,4.569-13.266
			c3.862-4.938,9.032-7.406,15.51-7.406c6.669,0,11.994,2.529,15.977,7.586c2.83,3.571,4.27,8.029,4.317,13.374h-35.196
			c0.096,4.543,1.548,8.268,4.355,11.173s6.275,4.358,10.402,4.358c1.992,0,3.93-0.347,5.813-1.039s3.485-1.611,4.805-2.758
			C924.369,400.408,925.797,398.558,927.333,396.003z M927.333,385.469c-0.672-2.684-1.649-4.829-2.934-6.435
			s-2.982-2.9-5.094-3.883c-2.112-0.982-4.331-1.475-6.659-1.475c-3.84,0-7.14,1.235-9.898,3.703
			c-2.017,1.798-3.54,4.494-4.571,8.089H927.333z"/>
		<path fill="#27AAE1" d="M944.058,369.866h5.033v6.759c1.752-2.492,3.551-4.314,5.399-5.465c2.543-1.533,5.219-2.301,8.026-2.301
			c1.896,0,3.694,0.372,5.398,1.114c1.704,0.743,3.096,1.732,4.176,2.967c1.079,1.234,2.016,3.002,2.808,5.303
			c1.673-3.068,3.765-5.398,6.276-6.993c2.511-1.594,5.213-2.391,8.105-2.391c2.702,0,5.087,0.684,7.155,2.05
			c2.068,1.365,3.604,3.271,4.609,5.716c1.004,2.444,1.506,6.111,1.506,11.001v21.355h-5.141v-21.355
			c0-4.193-0.299-7.076-0.896-8.646c-0.597-1.569-1.618-2.834-3.063-3.793c-1.445-0.958-3.171-1.438-5.178-1.438
			c-2.437,0-4.664,0.719-6.683,2.157c-2.02,1.438-3.494,3.355-4.426,5.752c-0.932,2.397-1.396,6.399-1.396,12.008v15.315h-5.033
			v-20.025c0-4.721-0.294-7.927-0.881-9.617c-0.588-1.689-1.612-3.043-3.074-4.063c-1.462-1.018-3.2-1.527-5.213-1.527
			c-2.325,0-4.5,0.701-6.525,2.103c-2.025,1.402-3.523,3.29-4.494,5.663s-1.456,6.004-1.456,10.894v16.573h-5.033V369.866z"/>
	</g>
</g>
</svg>
