<?xml version="1.0" encoding="utf-8"?>
<!-- Generator: Adobe Illustrator 21.0.0, SVG Export Plug-In . SVG Version: 6.00 Build 0)  -->
<svg version="1.1" id="Layer_1" xmlns="http://www.w3.org/2000/svg" xmlns:xlink="http://www.w3.org/1999/xlink" x="0px" y="0px"
	 viewBox="0 0 1134 537" enable-background="new 0 0 1134 537" xml:space="preserve">
<rect x="68.4" y="68.6" fill="none" width="292.8" height="413.2"/>
<text transform="matrix(1 0 0 1 68.3537 383.018)" fill="#27AAE1" stroke="#27AAE1" stroke-miterlimit="10" font-family="'Cambria'" font-size="450px">T</text>
<rect x="451.2" y="171.7" fill="none" width="796.1" height="190.8"/>
<text transform="matrix(1 0 0 1 451.206 335.91)" fill="#27AAE1" stroke="#27AAE1" stroke-miterlimit="10" font-family="'Cambria'" font-size="235px" letter-spacing="-11">MPUS</text>
<g>
	<path fill="none" stroke="#27AAE1" stroke-width="20" stroke-miterlimit="10" d="M363,338.7c-46.6,0-84.4-37.8-84.4-84.4
		s37.8-84.4,84.4-84.4s84.4,37.8,84.4,84.4"/>
	<circle fill="#27AAE1" stroke="#27AAE1" stroke-width="20" stroke-miterlimit="10" cx="363" cy="254.2" r="5.1"/>
	<g>
		<path fill="#27AAE1" d="M308.7,229.7c0.9-0.5,1.7-0.8,2.6-1.2l2.5-1c1.7-0.7,3.2-1.2,4.8-1.6c0.4-0.1,0.6,0.2,0.8,0.4
			c0.2,0.2,0.6,0.3,0.8,0.4l1.7,0.8l3.4,1.5l13.6,6.1l13.6,6.1l6.8,3.1c0.7,1.5,1.4,3,2,4.7l0.9,2.5c0.3,0.9,0.6,1.7,0.8,2.7
			c-0.9,0.4-1.7,0.8-2.6,1.2l-2.5,1c-1.7,0.6-3.2,1.1-4.8,1.6l-6.8-3.1l-13.6-6.1l-13.6-6.1l-3.4-1.5l-1.7-0.8
			c-0.3-0.1-0.5-0.3-0.9-0.3c-0.3,0-0.7,0-0.9-0.4c-0.7-1.5-1.4-3-2-4.7l-0.9-2.5C309.2,231.5,308.9,230.7,308.7,229.7z"/>
	</g>
	<g>
		<g>
			<linearGradient id="SVGID_1_" gradientUnits="userSpaceOnUse" x1="363.0265" y1="257.5879" x2="457.459" y2="257.5879">
				<stop  offset="0" style="stop-color:#2484C6"/>
				<stop  offset="1" style="stop-color:#2484C6;stop-opacity:0"/>
			</linearGradient>
			<path fill="none" stroke="url(#SVGID_1_)" stroke-width="20" stroke-miterlimit="10" d="M447.5,254.2c0,2-0.1,4-0.2,6"/>
			<linearGradient id="SVGID_2_" gradientUnits="userSpaceOnUse" x1="363.0265" y1="308.4648" x2="457.459" y2="308.4648">
				<stop  offset="0" style="stop-color:#2484C6"/>
				<stop  offset="1" style="stop-color:#2484C6;stop-opacity:0"/>
			</linearGradient>
			<path fill="none" stroke="url(#SVGID_2_)" stroke-width="20" stroke-miterlimit="10" stroke-dasharray="10.9665,10.9665" d="
				M445.8,271.1c-7.1,34.9-35.7,62-71.3,66.8"/>
			<linearGradient id="SVGID_3_" gradientUnits="userSpaceOnUse" x1="363.0265" y1="338.5784" x2="457.459" y2="338.5784">
				<stop  offset="0" style="stop-color:#2484C6"/>
				<stop  offset="1" style="stop-color:#2484C6;stop-opacity:0"/>
			</linearGradient>
			<path fill="none" stroke="url(#SVGID_3_)" stroke-width="20" stroke-miterlimit="10" d="M369,338.5c-2,0.1-4,0.2-6,0.2"/>
		</g>
	</g>
	<path fill="none" stroke="#27AAE1" stroke-width="20" stroke-miterlimit="10" d="M418.5,317.9c-35.2,30.6-88.5,26.9-119.1-8.2
		s-26.9-88.5,8.2-119.1s88.5-26.9,119.1,8.2"/>
	<g>
		<path fill="#27AAE1" d="M429.4,254.2c-1.4,1.5-2.8,2.9-4.1,4.1c-1.4,1.3-2.8,2.4-4.1,3.4c-0.3,0.2-0.7,0.1-1,0
			c-0.3-0.1-0.7,0-1-0.1H417h-4.1h-16.6h-16.6h-8.3c-1.4-1.1-2.8-2.2-4.1-3.5l-2.1-1.9c-0.7-0.7-1.4-1.3-2.1-2.1
			c0.7-0.8,1.4-1.4,2.1-2.1l2.1-1.9c1.4-1.3,2.8-2.4,4.1-3.5h8.3h16.6h16.6h4.1h2.1c0.3,0,0.7,0,1-0.1c0.3-0.1,0.7-0.3,1,0
			c1.4,1.1,2.8,2.2,4.1,3.4C426.6,251.3,428,252.7,429.4,254.2z"/>
	</g>
</g>
<rect x="262" y="351.5" fill="none" width="908.4" height="69"/>
<text transform="matrix(1 0 0 1 441.4009 391.9808)" fill="#27AAE1" font-family="'CenturyGothic'" font-size="55px" letter-spacing="1">Multi-Tenant System</text>
</svg>
